<svg width="502" height="156" viewBox="0 0 502 156" fill="none" xmlns="http://www.w3.org/2000/svg">
<g filter="url(#filter0_d)">
<path d="M118.14 12.07V133.11L136.16 147.05H81.4195L99.2695 133.45V78.54H44.5295V134.81L63.9095 147.05H4.5795L24.8095 134.81V12.07L4.5795 -8.10623e-06H63.7395L44.5295 12.07V69.02H99.2695V12.07L81.2495 -8.10623e-06H135.989L118.14 12.07ZM30.2495 95.54L34.6695 135.83L39.9395 95.54L35.1795 87.55L30.2495 95.54ZM29.9095 54.06L35.0095 62.22L39.9395 54.06L34.8395 14.79L29.9095 54.06ZM35.0095 68L30.0795 74.46L35.0095 81.09L39.5995 74.46L35.0095 68ZM103.859 95.54L108.28 135.83L113.55 95.54L108.79 87.55L103.859 95.54ZM103.52 54.06L108.619 62.22L113.55 54.06L108.449 14.79L103.52 54.06ZM108.619 68L103.689 74.46L108.619 81.09L113.209 74.46L108.619 68ZM124.609 16.15H160.139L152.999 21.25V111.69L160.309 119H125.289L132.599 112.03V21.76L124.609 16.15ZM163.445 51.68V16.15H222.605V52.02L210.875 23.97H202.885V112.03L210.365 119H176.025L183.675 112.37V23.97H174.665L163.445 51.68ZM250.661 66.98C258.141 66.98 264.828 65.9033 270.721 63.75C273.214 62.8433 275.651 61.6533 278.031 60.18C280.411 58.7067 282.451 56.8933 284.151 54.74C285.964 52.4733 287.381 49.8667 288.401 46.92C289.421 43.86 289.874 40.29 289.761 36.21C289.534 32.6967 288.798 29.6367 287.551 27.03C286.418 24.31 284.888 21.9867 282.961 20.06C281.148 18.1333 279.051 16.5467 276.671 15.3C274.404 13.94 272.081 12.8633 269.701 12.07C264.034 10.1433 257.688 9.18 250.661 9.18V66.98ZM212.241 147.05L230.771 136.51V10.88L212.071 -8.10623e-06H260.861C262.448 -8.10623e-06 264.658 0.169993 267.491 0.509995C270.324 0.849998 273.384 1.47333 276.671 2.37999C280.071 3.28666 283.471 4.53333 286.871 6.11999C290.271 7.70666 293.331 9.80333 296.051 12.41C298.884 15.0167 301.208 18.19 303.021 21.93C304.834 25.67 305.798 30.1467 305.911 35.36C306.138 42.16 305.174 47.8833 303.021 52.53C300.981 57.1767 298.261 61.03 294.861 64.09C291.574 67.15 287.834 69.53 283.641 71.23C279.448 72.93 275.254 74.1767 271.061 74.97C266.981 75.7633 263.071 76.2167 259.331 76.33C255.704 76.4433 252.758 76.4433 250.491 76.33V136.51L269.191 147.05H212.241ZM235.701 93.5L240.631 133.79L245.731 93.5L240.801 85.51L235.701 93.5ZM235.361 52.02L240.461 60.18L245.731 52.02L240.631 12.75L235.361 52.02ZM240.461 65.96L235.531 72.42L240.461 79.05L245.731 72.42L240.461 65.96ZM297.241 24.31L292.821 36.89L297.581 50.49L303.021 36.89L297.241 24.31ZM360.222 119H307.862L316.192 112.71V22.95L307.862 16.15H344.582L336.422 21.93V112.37H348.152L360.222 74.63V119ZM449.517 119H410.757L418.407 110.16L412.967 83.64H391.717L384.747 110.84L393.757 119H362.137L374.037 110.16L397.667 24.48L386.957 15.98H413.477L439.657 111.52L449.517 119ZM393.417 77.35H411.267L402.257 41.31L393.417 77.35ZM431.018 16.15H461.788L456.688 23.12L469.608 52.19L482.188 23.12L476.408 16.15H497.828L491.878 23.12L475.048 63.24V111.69L481.168 119H449.208L456.008 111.18V63.75L438.668 23.12L431.018 16.15Z" fill="white"/>
</g>
<defs>
<filter id="filter0_d" x="0.57959" y="0" width="501.248" height="155.05" filterUnits="userSpaceOnUse" color-interpolation-filters="sRGB">
<feFlood flood-opacity="0" result="BackgroundImageFix"/>
<feColorMatrix in="SourceAlpha" type="matrix" values="0 0 0 0 0 0 0 0 0 0 0 0 0 0 0 0 0 0 127 0"/>
<feOffset dy="4"/>
<feGaussianBlur stdDeviation="2"/>
<feColorMatrix type="matrix" values="0 0 0 0 0 0 0 0 0 0 0 0 0 0 0 0 0 0 0.25 0"/>
<feBlend mode="normal" in2="BackgroundImageFix" result="effect1_dropShadow"/>
<feBlend mode="normal" in="SourceGraphic" in2="effect1_dropShadow" result="shape"/>
</filter>
</defs>
</svg>
