<svg width="565" height="178" viewBox="0 0 565 178" fill="none" xmlns="http://www.w3.org/2000/svg">
<g filter="url(#filter0_d)">
<path d="M133.14 17.07V138.11L151.16 152.05H96.4195L114.27 138.45V83.54H59.5295V139.81L78.9095 152.05H19.5795L39.8095 139.81V17.07L19.5795 4.99999H78.7395L59.5295 17.07V74.02H114.27V17.07L96.2495 4.99999H150.989L133.14 17.07ZM45.2495 100.54L49.6695 140.83L54.9395 100.54L50.1795 92.55L45.2495 100.54ZM44.9095 59.06L50.0095 67.22L54.9395 59.06L49.8395 19.79L44.9095 59.06ZM50.0095 73L45.0795 79.46L50.0095 86.09L54.5995 79.46L50.0095 73ZM118.859 100.54L123.28 140.83L128.55 100.54L123.79 92.55L118.859 100.54ZM118.52 59.06L123.619 67.22L128.55 59.06L123.449 19.79L118.52 59.06ZM123.619 73L118.689 79.46L123.619 86.09L128.209 79.46L123.619 73ZM139.609 21.15H175.139L167.999 26.25V116.69L175.309 124H140.289L147.599 117.03V26.76L139.609 21.15ZM178.445 56.68V21.15H237.605V57.02L225.875 28.97H217.885V117.03L225.365 124H191.025L198.675 117.37V28.97H189.665L178.445 56.68ZM265.661 71.98C273.141 71.98 279.828 70.9033 285.721 68.75C288.214 67.8433 290.651 66.6533 293.031 65.18C295.411 63.7067 297.451 61.8933 299.151 59.74C300.964 57.4733 302.381 54.8667 303.401 51.92C304.421 48.86 304.874 45.29 304.761 41.21C304.534 37.6967 303.798 34.6367 302.551 32.03C301.418 29.31 299.888 26.9867 297.961 25.06C296.148 23.1333 294.051 21.5467 291.671 20.3C289.404 18.94 287.081 17.8633 284.701 17.07C279.034 15.1433 272.688 14.18 265.661 14.18V71.98ZM227.241 152.05L245.771 141.51V15.88L227.071 4.99999H275.861C277.448 4.99999 279.658 5.16999 282.491 5.51C285.324 5.85 288.384 6.47333 291.671 7.37999C295.071 8.28666 298.471 9.53333 301.871 11.12C305.271 12.7067 308.331 14.8033 311.051 17.41C313.884 20.0167 316.208 23.19 318.021 26.93C319.834 30.67 320.798 35.1467 320.911 40.36C321.138 47.16 320.174 52.8833 318.021 57.53C315.981 62.1767 313.261 66.03 309.861 69.09C306.574 72.15 302.834 74.53 298.641 76.23C294.448 77.93 290.254 79.1767 286.061 79.97C281.981 80.7633 278.071 81.2167 274.331 81.33C270.704 81.4433 267.758 81.4433 265.491 81.33V141.51L284.191 152.05H227.241ZM250.701 98.5L255.631 138.79L260.731 98.5L255.801 90.51L250.701 98.5ZM250.361 57.02L255.461 65.18L260.731 57.02L255.631 17.75L250.361 57.02ZM255.461 70.96L250.531 77.42L255.461 84.05L260.731 77.42L255.461 70.96ZM312.241 29.31L307.821 41.89L312.581 55.49L318.021 41.89L312.241 29.31ZM375.222 124H322.862L331.192 117.71V27.95L322.862 21.15H359.582L351.422 26.93V117.37H363.152L375.222 79.63V124ZM464.517 124H425.757L433.407 115.16L427.967 88.64H406.717L399.747 115.84L408.757 124H377.137L389.037 115.16L412.667 29.48L401.957 20.98H428.477L454.657 116.52L464.517 124ZM408.417 82.35H426.267L417.257 46.31L408.417 82.35ZM446.018 21.15H476.788L471.688 28.12L484.608 57.19L497.188 28.12L491.408 21.15H512.828L506.878 28.12L490.048 68.24V116.69L496.168 124H464.208L471.008 116.18V68.75L453.668 28.12L446.018 21.15Z" fill="white"/>
</g>
<g filter="url(#filter1_d)">
<path d="M335.482 133.3C340.115 133.3 343.482 134.267 345.582 136.2C347.715 138.133 348.782 140.8 348.782 144.2C348.782 146.233 348.349 148.15 347.482 149.95C346.615 151.717 345.149 153.15 343.082 154.25C341.049 155.317 338.282 155.85 334.782 155.85H331.232V169H324.832V133.3H335.482ZM335.082 138.6H331.232V150.55H334.132C336.732 150.55 338.732 150.083 340.132 149.15C341.565 148.183 342.282 146.617 342.282 144.45C342.282 142.483 341.699 141.017 340.532 140.05C339.365 139.083 337.549 138.6 335.082 138.6ZM379.289 155.4C379.289 159.9 378.122 163.383 375.789 165.85C373.456 168.283 370.289 169.5 366.289 169.5C363.822 169.5 361.622 168.95 359.689 167.85C357.756 166.75 356.239 165.15 355.139 163.05C354.039 160.95 353.489 158.4 353.489 155.4C353.489 150.9 354.639 147.45 356.939 145.05C359.272 142.617 362.439 141.4 366.439 141.4C368.939 141.4 371.156 141.95 373.089 143.05C375.022 144.117 376.539 145.7 377.639 147.8C378.739 149.867 379.289 152.4 379.289 155.4ZM359.939 155.4C359.939 158.267 360.439 160.483 361.439 162.05C362.472 163.617 364.122 164.4 366.389 164.4C368.656 164.4 370.289 163.617 371.289 162.05C372.322 160.483 372.839 158.267 372.839 155.4C372.839 152.533 372.322 150.333 371.289 148.8C370.289 147.267 368.639 146.5 366.339 146.5C364.106 146.5 362.472 147.267 361.439 148.8C360.439 150.333 359.939 152.533 359.939 155.4ZM394.652 169.5C391.485 169.5 388.935 168.317 387.002 165.95C385.068 163.583 384.102 160.1 384.102 155.5C384.102 150.833 385.085 147.317 387.052 144.95C389.018 142.583 391.602 141.4 394.802 141.4C396.802 141.4 398.435 141.783 399.702 142.55C401.002 143.317 402.035 144.25 402.802 145.35H403.102C403.002 144.883 402.902 144.167 402.802 143.2C402.702 142.233 402.652 141.333 402.652 140.5V131H408.952V169H404.052L402.902 165.45H402.652C401.885 166.583 400.868 167.55 399.602 168.35C398.335 169.117 396.685 169.5 394.652 169.5ZM396.552 164.4C398.885 164.4 400.518 163.733 401.452 162.4C402.418 161.067 402.918 159.05 402.952 156.35V155.55C402.952 152.65 402.485 150.433 401.552 148.9C400.652 147.333 398.952 146.55 396.452 146.55C394.518 146.55 393.035 147.35 392.002 148.95C391.002 150.517 390.502 152.733 390.502 155.6C390.502 158.467 391.018 160.65 392.052 162.15C393.085 163.65 394.585 164.4 396.552 164.4ZM427.851 169.5C423.951 169.5 420.884 168.383 418.651 166.15C416.417 163.917 415.301 160.4 415.301 155.6C415.301 152.267 415.851 149.567 416.951 147.5C418.084 145.4 419.634 143.867 421.601 142.9C423.567 141.9 425.817 141.4 428.351 141.4C430.051 141.4 431.567 141.567 432.901 141.9C434.234 142.233 435.367 142.633 436.301 143.1L434.451 148.05C433.417 147.65 432.384 147.317 431.351 147.05C430.317 146.75 429.317 146.6 428.351 146.6C423.951 146.6 421.751 149.583 421.751 155.55C421.751 158.45 422.301 160.633 423.401 162.1C424.534 163.567 426.151 164.3 428.251 164.3C429.751 164.3 431.084 164.117 432.251 163.75C433.417 163.383 434.534 162.883 435.601 162.25V167.7C434.567 168.3 433.451 168.75 432.251 169.05C431.084 169.35 429.617 169.5 427.851 169.5ZM452.649 141.4C456.149 141.4 458.799 142.167 460.599 143.7C462.433 145.233 463.349 147.6 463.349 150.8V169H458.899L457.649 165.25H457.449C456.283 166.717 455.049 167.8 453.749 168.5C452.449 169.167 450.683 169.5 448.449 169.5C446.016 169.5 443.999 168.817 442.399 167.45C440.799 166.083 439.999 163.967 439.999 161.1C439.999 158.3 441.016 156.2 443.049 154.8C445.116 153.4 448.233 152.617 452.399 152.45L457.099 152.3V150.95C457.099 149.25 456.683 148.033 455.849 147.3C455.016 146.533 453.849 146.15 452.349 146.15C450.983 146.15 449.666 146.35 448.399 146.75C447.166 147.15 445.933 147.617 444.699 148.15L442.699 143.75C444.033 143.05 445.549 142.483 447.249 142.05C448.983 141.617 450.783 141.4 452.649 141.4ZM453.799 156.3C451.033 156.4 449.116 156.883 448.049 157.75C446.983 158.583 446.449 159.717 446.449 161.15C446.449 162.45 446.816 163.383 447.549 163.95C448.316 164.483 449.316 164.75 450.549 164.75C452.383 164.75 453.933 164.233 455.199 163.2C456.466 162.133 457.099 160.567 457.099 158.5V156.2L453.799 156.3ZM489.594 161.15C489.594 163.883 488.611 165.967 486.644 167.4C484.711 168.8 481.927 169.5 478.294 169.5C476.394 169.5 474.761 169.367 473.394 169.1C472.061 168.833 470.761 168.417 469.494 167.85V162.5C470.827 163.133 472.294 163.667 473.894 164.1C475.527 164.533 477.061 164.75 478.494 164.75C480.227 164.75 481.477 164.483 482.244 163.95C483.011 163.417 483.394 162.7 483.394 161.8C483.394 161.267 483.244 160.8 482.944 160.4C482.644 159.967 482.044 159.5 481.144 159C480.277 158.5 478.977 157.883 477.244 157.15C475.511 156.483 474.061 155.8 472.894 155.1C471.761 154.367 470.894 153.517 470.294 152.55C469.727 151.583 469.444 150.333 469.444 148.8C469.444 146.367 470.394 144.533 472.294 143.3C474.227 142.033 476.794 141.4 479.994 141.4C481.661 141.4 483.227 141.567 484.694 141.9C486.194 142.233 487.694 142.733 489.194 143.4L487.194 148.05C485.927 147.517 484.694 147.067 483.494 146.7C482.294 146.333 481.061 146.15 479.794 146.15C477.027 146.15 475.644 146.933 475.644 148.5C475.644 149.067 475.811 149.55 476.144 149.95C476.511 150.35 477.127 150.783 477.994 151.25C478.894 151.683 480.161 152.217 481.794 152.85C483.394 153.483 484.777 154.15 485.944 154.85C487.111 155.517 488.011 156.35 488.644 157.35C489.277 158.35 489.594 159.617 489.594 161.15ZM506.056 164.45C506.822 164.45 507.572 164.383 508.306 164.25C509.072 164.083 509.772 163.9 510.406 163.7V168.4C509.739 168.7 508.872 168.95 507.806 169.15C506.739 169.383 505.622 169.5 504.456 169.5C502.922 169.5 501.522 169.25 500.256 168.75C498.989 168.217 497.989 167.317 497.256 166.05C496.522 164.783 496.156 163.017 496.156 160.75V146.65H492.506V143.9L496.506 141.7L498.506 135.95H502.456V141.9H510.156V146.65H502.456V160.7C502.456 161.967 502.789 162.917 503.456 163.55C504.122 164.15 504.989 164.45 506.056 164.45Z" fill="white"/>
</g>
<defs>
<filter id="filter0_d" x="15.5796" y="5" width="501.248" height="155.05" filterUnits="userSpaceOnUse" color-interpolation-filters="sRGB">
<feFlood flood-opacity="0" result="BackgroundImageFix"/>
<feColorMatrix in="SourceAlpha" type="matrix" values="0 0 0 0 0 0 0 0 0 0 0 0 0 0 0 0 0 0 127 0"/>
<feOffset dy="4"/>
<feGaussianBlur stdDeviation="2"/>
<feColorMatrix type="matrix" values="0 0 0 0 0 0 0 0 0 0 0 0 0 0 0 0 0 0 0.25 0"/>
<feBlend mode="normal" in2="BackgroundImageFix" result="effect1_dropShadow"/>
<feBlend mode="normal" in="SourceGraphic" in2="effect1_dropShadow" result="shape"/>
</filter>
<filter id="filter1_d" x="320.832" y="131" width="193.574" height="46.5" filterUnits="userSpaceOnUse" color-interpolation-filters="sRGB">
<feFlood flood-opacity="0" result="BackgroundImageFix"/>
<feColorMatrix in="SourceAlpha" type="matrix" values="0 0 0 0 0 0 0 0 0 0 0 0 0 0 0 0 0 0 127 0"/>
<feOffset dy="4"/>
<feGaussianBlur stdDeviation="2"/>
<feColorMatrix type="matrix" values="0 0 0 0 0 0 0 0 0 0 0 0 0 0 0 0 0 0 0.25 0"/>
<feBlend mode="normal" in2="BackgroundImageFix" result="effect1_dropShadow"/>
<feBlend mode="normal" in="SourceGraphic" in2="effect1_dropShadow" result="shape"/>
</filter>
</defs>
</svg>
